# xmcd
#
# Track frame offsets:
#	150
#	17150
#	34545
#	57615
#	79782
#	103327
#	122355
#	151852
#
# Disc length: 2652 seconds
#
# Revision: 9
# Processed by: cddbd v1.5.2PL0 Copyright (c) Steve Scherf et al.
# Submitted via: EZCDAudioConverter 2.0.7.1
#
DISCID=5c0a5a08
DTITLE=Stevie Wonder - Stevie Wonder's Original Musiquarium I
DYEAR=1982
DGENRE=R&B
TTITLE0=Higher Ground
TTITLE1=Sir Duke
TTITLE2=Master Blaster (Jammin')
TTITLE3=Boogie On Reggae Woman
TTITLE4=That Girl
TTITLE5=I Wish
TTITLE6=Isn't She Lovely
TTITLE7=Do I Do
EXTD=
EXTT0=
EXTT1=
EXTT2=
EXTT3=
EXTT4=
EXTT5=
EXTT6=
EXTT7=
PLAYORDER=
